<?xml version="1.0" encoding="utf-8"?>
<!-- Generator: Adobe Illustrator 26.0.3, SVG Export Plug-In . SVG Version: 6.00 Build 0)  -->
<svg version="1.1" id="Layer_1" xmlns="http://www.w3.org/2000/svg" xmlns:xlink="http://www.w3.org/1999/xlink" x="0px" y="0px"
	 viewBox="0 0 1192.1 994.6" enable-background="new 0 0 1192.1 994.6" xml:space="preserve">
<g id="Layer_121">
	<linearGradient id="SVGID_1_" gradientUnits="userSpaceOnUse" x1="105.4486" y1="987.8188" x2="1085.2721" y2="987.8188">
		<stop  offset="0" style="stop-color:#C5D1C3;stop-opacity:0"/>
		<stop  offset="0.3094" style="stop-color:#C5D1C3"/>
		<stop  offset="0.3737" style="stop-color:#C5D1C3"/>
		<stop  offset="0.7504" style="stop-color:#C5D1C3"/>
		<stop  offset="1" style="stop-color:#C5D1C3;stop-opacity:1.428528e-02"/>
	</linearGradient>
	<path fill="url(#SVGID_1_)" d="M112,981h966.7c3.6,0,6.6,2.9,6.6,6.6v0.5c0,3.6-2.9,6.6-6.6,6.6H112c-3.6,0-6.6-2.9-6.6-6.6v-0.5
		C105.4,983.9,108.4,981,112,981z"/>
</g>
<g id="Layer_120">
	<g>
		
			<radialGradient id="SVGID_00000128479143439273336780000010831309453815378846_" cx="587.1509" cy="489.191" r="558.3349" gradientTransform="matrix(0.8191 0.5736 -0.3774 0.539 290.8324 -111.2619)" gradientUnits="userSpaceOnUse">
			<stop  offset="0.6772" style="stop-color:#9B8084"/>
			<stop  offset="0.7646" style="stop-color:#8F766F"/>
			<stop  offset="0.9439" style="stop-color:#6F5D3A"/>
			<stop  offset="1" style="stop-color:#645528"/>
		</radialGradient>
		<path fill="url(#SVGID_00000128479143439273336780000010831309453815378846_)" d="M737.1,703.9l-100.7-4.8
			c-78.2-3.7-151.4-39.6-202.2-99.2L284.1,423.8c-23.8-27.9-62.9-36.9-96.5-22.3l0,0c-49.1,21.3-65.6,82.8-33.7,125.8l97.9,132.4
			c70.6,95.5,173.4,162.2,289.3,187.8l182.3,40.3"/>
		
			<radialGradient id="SVGID_00000053507977053140601770000001159857314217693078_" cx="396.2167" cy="520.2101" r="389.2258" gradientTransform="matrix(0.7173 0.6968 -0.5246 0.54 384.887 -36.787)" gradientUnits="userSpaceOnUse">
			<stop  offset="0.6772" style="stop-color:#9B8084"/>
			<stop  offset="0.7646" style="stop-color:#8F766F"/>
			<stop  offset="0.9439" style="stop-color:#6F5D3A"/>
			<stop  offset="1" style="stop-color:#645528"/>
		</radialGradient>
		<path fill="url(#SVGID_00000053507977053140601770000001159857314217693078_)" d="M254.9,804.8L47.5,524.3
			c-31.8-43-15.3-104.5,33.7-125.8l0,0c33.6-14.6,72.8-5.5,96.5,22.3l153.9,180.6c64,75.1,155.1,121.8,253.4,129.9l56.1,4.7"/>
	</g>
</g>
<g id="Layer_119">
</g>
<linearGradient id="SVGID_00000147204225313159826150000009553044566416256647_" gradientUnits="userSpaceOnUse" x1="530.0904" y1="-88.8536" x2="530.0904" y2="840.6646">
	<stop  offset="0.5" style="stop-color:#005BBB"/>
	<stop  offset="0.5" style="stop-color:#1565AC"/>
	<stop  offset="0.5" style="stop-color:#4B7F84"/>
	<stop  offset="0.5" style="stop-color:#A1A845"/>
	<stop  offset="0.5" style="stop-color:#FFD500"/>
</linearGradient>
<path fill="url(#SVGID_00000147204225313159826150000009553044566416256647_)" d="M524.8,105.3C573.2,43.9,647.3,3.3,731.6,0.2
	c1.6-0.1,3.2-0.1,4.8-0.1C926-3.8,1051.7,195.9,968.9,366.6l0,0c-67.6,139.4-164.5,262.5-284.2,361L549.4,839L406.9,736.9
	C280.9,646.6,176,530.2,99.2,395.7l0,0C5.2,230.9,117.3,23.3,306.8,14.4c1.6-0.1,3.2-0.1,4.8-0.2C395.8,11.7,472.4,47.3,524.8,105.3
	z"/>
<radialGradient id="SVGID_00000130618094908248718910000013514910322131781306_" cx="872.9544" cy="416.8595" r="615.1478" gradientTransform="matrix(-0.5481 0.8364 -0.6474 -0.4242 1621.2782 -136.4586)" gradientUnits="userSpaceOnUse">
	<stop  offset="0.6771" style="stop-color:#005BBB;stop-opacity:0"/>
	<stop  offset="0.7241" style="stop-color:#0051A6;stop-opacity:7.283958e-02"/>
	<stop  offset="0.8212" style="stop-color:#003770;stop-opacity:0.2232"/>
	<stop  offset="0.9588" style="stop-color:#000D1B;stop-opacity:0.4364"/>
	<stop  offset="0.9998" style="stop-color:#000000;stop-opacity:0.5"/>
</radialGradient>
<path fill="url(#SVGID_00000130618094908248718910000013514910322131781306_)" d="M524.8,105.3C573.2,43.9,647.3,3.3,731.6,0.2
	c1.6-0.1,3.2-0.1,4.8-0.1C926-3.8,1051.7,195.9,968.9,366.6l0,0c-67.6,139.4-164.5,262.5-284.2,361L549.4,839L406.9,736.9
	C280.9,646.6,176,530.2,99.2,395.7l0,0C5.2,230.9,117.3,23.3,306.8,14.4c1.6-0.1,3.2-0.1,4.8-0.2C395.8,11.7,472.4,47.3,524.8,105.3
	z"/>
<defs>
	<filter id="Adobe_OpacityMaskFilter" filterUnits="userSpaceOnUse" x="65.3" y="14.1" width="530.4" height="819">
		<feColorMatrix  type="matrix" values="1 0 0 0 0  0 1 0 0 0  0 0 1 0 0  0 0 0 1 0"/>
	</filter>
</defs>
<mask maskUnits="userSpaceOnUse" x="65.3" y="14.1" width="530.4" height="819" id="SVGID_00000161609620095818540110000014385493700236645305_">
	<g filter="url(#Adobe_OpacityMaskFilter)">
		<rect x="23.7" y="375.9" fill="#FFFFFF" width="696.1" height="450.7"/>
	</g>
</mask>
<radialGradient id="SVGID_00000003080765469868446690000004704232740784865966_" cx="553.2047" cy="394.1377" r="564.975" gradientTransform="matrix(0.6555 0.7552 -0.6146 0.5336 432.8092 -233.915)" gradientUnits="userSpaceOnUse">
	<stop  offset="0.6756" style="stop-color:#FFD500"/>
	<stop  offset="1" style="stop-color:#FFD500;stop-opacity:0"/>
</radialGradient>
<path mask="url(#SVGID_00000161609620095818540110000014385493700236645305_)" fill="url(#SVGID_00000003080765469868446690000004704232740784865966_)" d="
	M527.6,108.4c-0.9-1-1.8-2.1-2.7-3.1c0,0,0,0,0,0c-52.4-58.1-129-93.6-213.3-91.1c-1.6,0-3.2,0.1-4.8,0.2
	C117.3,23.3,5.2,230.9,99.2,395.7l0,0c76.8,134.6,181.7,251,307.7,341.2l134.3,96.2h15.4l39.2-32.3V282
	C593.8,215.3,568.3,154.9,527.6,108.4L527.6,108.4z"/>
<defs>
	
		<filter id="Adobe_OpacityMaskFilter_00000008827654557060352170000002853300602601274755_" filterUnits="userSpaceOnUse" x="65.3" y="14.1" width="530.4" height="819">
		<feColorMatrix  type="matrix" values="1 0 0 0 0  0 1 0 0 0  0 0 1 0 0  0 0 0 1 0"/>
	</filter>
</defs>
<mask maskUnits="userSpaceOnUse" x="65.3" y="14.1" width="530.4" height="819" id="SVGID_00000136411929451279254970000011758472352837674115_">
	<g filter="url(#Adobe_OpacityMaskFilter_00000008827654557060352170000002853300602601274755_)">
		<rect x="-42.5" y="-1.2" fill="#FFFFFF" width="686.5" height="377.1"/>
	</g>
</mask>
<radialGradient id="SVGID_00000030488224229357430560000007022649621004256703_" cx="553.2047" cy="394.1377" r="564.975" gradientTransform="matrix(0.6555 0.7552 -0.6146 0.5336 432.8092 -233.915)" gradientUnits="userSpaceOnUse">
	<stop  offset="0.6755" style="stop-color:#005BBB"/>
	<stop  offset="1" style="stop-color:#005BBB;stop-opacity:0"/>
</radialGradient>
<path mask="url(#SVGID_00000136411929451279254970000011758472352837674115_)" fill="url(#SVGID_00000030488224229357430560000007022649621004256703_)" d="
	M527.6,108.4c-0.9-1-1.8-2.1-2.7-3.1c0,0,0,0,0,0c-52.4-58.1-129-93.6-213.3-91.1c-1.6,0-3.2,0.1-4.8,0.2
	C117.3,23.3,5.2,230.9,99.2,395.7l0,0c76.8,134.6,181.7,251,307.7,341.2l134.3,96.2h15.4l39.2-32.3V282
	C593.8,215.3,568.3,154.9,527.6,108.4L527.6,108.4z"/>
<radialGradient id="SVGID_00000114752018739648296470000004508117622020743324_" cx="713.0812" cy="492.8035" r="351.1147" gradientTransform="matrix(-0.9955 -9.438939e-02 3.909027e-02 -0.4123 1403.715 763.2885)" gradientUnits="userSpaceOnUse">
	<stop  offset="0.6769" style="stop-color:#FFA000;stop-opacity:0.5"/>
	<stop  offset="1" style="stop-color:#FFA000;stop-opacity:0"/>
</radialGradient>
<path fill="url(#SVGID_00000114752018739648296470000004508117622020743324_)" d="M524.8,105.3C573.2,43.9,647.3,3.3,731.6,0.2
	c1.6-0.1,3.2-0.1,4.8-0.1C926-3.8,1051.7,195.9,968.9,366.6l0,0c-67.6,139.4-164.5,262.5-284.2,361L549.4,839L406.9,736.9
	C280.9,646.6,176,530.2,99.2,395.7l0,0C5.2,230.9,117.3,23.3,306.8,14.4c1.6-0.1,3.2-0.1,4.8-0.2C395.8,11.7,472.4,47.3,524.8,105.3
	z"/>
<g id="Layer_118">
	<g>
		
			<radialGradient id="SVGID_00000098935968821296556990000015869436762458760863_" cx="626.479" cy="455.2907" r="688.8052" gradientTransform="matrix(0.961 0.2764 -0.1994 0.6931 115.171 -33.4514)" gradientUnits="userSpaceOnUse">
			<stop  offset="0.6772" style="stop-color:#9B8084"/>
			<stop  offset="0.7646" style="stop-color:#8F766F"/>
			<stop  offset="0.9439" style="stop-color:#6F5D3A"/>
			<stop  offset="1" style="stop-color:#645528"/>
		</radialGradient>
		<path fill="url(#SVGID_00000098935968821296556990000015869436762458760863_)" d="M665,738.6l-138.6-11.9
			c-109.5-9.4-211.3-60-284.8-141.7l-88.5-98.3C130,461,93.4,452.1,61,464.2l0,0c-56.2,21-78.5,88.5-45.9,138.9l14.8,22.9
			c95.6,147.6,235.5,260.9,399.7,323.8l0,0c77.7,29.7,160.1,45,243.2,45h224.5c167.9,0,301.9-140.1,294.4-307.8v0
			c-6.1-136.4-98.4-253.8-229.5-291.8l0,0c-138.9-40.3-283.4-57.5-427.8-51l-114.1,5.1c-36.6,1.6-65.5,31.8-65.5,68.5v0
			c0,82.2,66.6,148.7,148.7,148.7h10.9c72.8,0,145.4,4.7,217.5,14c-32.7,51.1-56,107.7-68.9,167.1l-1.4,6.4"/>
		
			<radialGradient id="SVGID_00000102525599910163014050000004306876326410886537_" cx="809.6697" cy="412.0468" r="452.4424" gradientTransform="matrix(0.961 0.2764 -0.1754 0.61 103.8369 -63.1079)" gradientUnits="userSpaceOnUse">
			<stop  offset="0.6772" style="stop-color:#9B8084"/>
			<stop  offset="0.7646" style="stop-color:#8F766F"/>
			<stop  offset="0.9439" style="stop-color:#6F5D3A"/>
			<stop  offset="1" style="stop-color:#645528"/>
		</radialGradient>
		<path fill="url(#SVGID_00000102525599910163014050000004306876326410886537_)" d="M732,580.3c64.1,8.3,127.8,20.2,190.7,35.8
			l33.3-6.1l57-195.4c-16.1-7.8-33-14.4-50.7-19.5l0,0c-138.9-40.3-283.4-57.5-427.8-51l-114.1,5.1c-36.6,1.6-65.5,31.8-65.5,68.5v0
			c0,82.2,66.6,148.7,148.7,148.7h10.9C587.3,566.3,660,571,732,580.3C732,580.3,732,580.3,732,580.3L732,580.3z"/>
		
			<radialGradient id="SVGID_00000029745348181088823230000012742379319547705509_" cx="479.8637" cy="408.3201" r="91.4953" gradientUnits="userSpaceOnUse">
			<stop  offset="0.426" style="stop-color:#E4EBE4"/>
			<stop  offset="1" style="stop-color:#D5E0D5;stop-opacity:0"/>
		</radialGradient>
		<path opacity="0.5" fill="url(#SVGID_00000029745348181088823230000012742379319547705509_)" d="M468.2,476.3
			c34.2,0,61.9-29.9,61.9-66.8c0-29.5-17.8-54.6-42.4-63.4l-43.8,2c-22.1,10.2-37.5,33.9-37.5,61.5
			C406.4,446.4,434.1,476.3,468.2,476.3z"/>
		
			<radialGradient id="SVGID_00000065061560464995674700000013638347124886691727_" cx="479.8637" cy="408.3201" r="74.5312" gradientUnits="userSpaceOnUse">
			<stop  offset="0.7516" style="stop-color:#D5E0D5;stop-opacity:0"/>
			<stop  offset="1" style="stop-color:#E4EBE4"/>
		</radialGradient>
		<path opacity="0.5" fill="url(#SVGID_00000065061560464995674700000013638347124886691727_)" d="M468.2,476.3
			c34.2,0,61.9-29.9,61.9-66.8c0-29.5-17.8-54.6-42.4-63.4l-43.8,2c-22.1,10.2-37.5,33.9-37.5,61.5
			C406.4,446.4,434.1,476.3,468.2,476.3z"/>
		
			<radialGradient id="SVGID_00000024697777140392712370000016546598690276103833_" cx="530.5724" cy="406.562" r="50.7899" gradientTransform="matrix(1 0 0 1.3417 0 -138.9034)" gradientUnits="userSpaceOnUse">
			<stop  offset="0.7516" style="stop-color:#E4EBE4"/>
			<stop  offset="1" style="stop-color:#D5E0D5;stop-opacity:0"/>
		</radialGradient>
		<path opacity="0.5" fill="url(#SVGID_00000024697777140392712370000016546598690276103833_)" d="M468.2,476.3
			c34.2,0,61.9-29.9,61.9-66.8c0-29.5-17.8-54.6-42.4-63.4l-43.8,2c-22.1,10.2-37.5,33.9-37.5,61.5
			C406.4,446.4,434.1,476.3,468.2,476.3z"/>
		
			<radialGradient id="SVGID_00000156582269217577710730000011674185958535786172_" cx="454.7902" cy="461.8535" r="59.6633" gradientTransform="matrix(1 0 0 1.3417 0 -157.7939)" gradientUnits="userSpaceOnUse">
			<stop  offset="0.426" style="stop-color:#E4EBE4"/>
			<stop  offset="1" style="stop-color:#D5E0D5;stop-opacity:0"/>
		</radialGradient>
		<path opacity="0.5" fill="url(#SVGID_00000156582269217577710730000011674185958535786172_)" d="M468.2,471.5
			c-33.5,0-60.8-28.8-61.8-64.7c0,0.9,0,1.8,0,2.7c0,36.9,27.7,66.8,61.9,66.8s61.9-29.9,61.9-66.8c0-0.9,0-1.8,0-2.7
			C529,442.8,501.7,471.5,468.2,471.5z"/>
		
			<radialGradient id="SVGID_00000116943747430036668750000011342884884805887383_" cx="842.4646" cy="737.6716" r="254.7726" gradientTransform="matrix(0.9995 -3.004989e-02 2.307142e-02 0.7674 -16.6387 196.8808)" gradientUnits="userSpaceOnUse">
			<stop  offset="0.6772" style="stop-color:#9B8084"/>
			<stop  offset="0.7646" style="stop-color:#8F766F"/>
			<stop  offset="0.9439" style="stop-color:#6F5D3A"/>
			<stop  offset="1" style="stop-color:#645528"/>
		</radialGradient>
		<path fill="url(#SVGID_00000116943747430036668750000011342884884805887383_)" d="M922.7,616.1c-62.9-15.6-126.6-27.5-190.7-35.8
			l-11.3,18.6c-13,22.4-24.3,45.7-33.7,69.8C761,666.7,922.7,616.1,922.7,616.1L922.7,616.1z"/>
		<g>
			
				<radialGradient id="SVGID_00000149378180794364398320000000672607835286834572_" cx="505.0119" cy="820.6469" r="219.7034" gradientTransform="matrix(0.961 0.2764 -0.2122 0.7379 193.829 75.5371)" gradientUnits="userSpaceOnUse">
				<stop  offset="0.7062" style="stop-color:#645528;stop-opacity:0"/>
				<stop  offset="1" style="stop-color:#645528"/>
			</radialGradient>
			<path fill="url(#SVGID_00000149378180794364398320000000672607835286834572_)" d="M665,738.6l-138.6-11.9
				c-16.2-1.4-32.3-3.7-48.1-6.9V839h173.4l3.5-38.6c1.6-17.8,4.3-35.5,8-52.9l-1.4,6.4L665,738.6z"/>
			
				<radialGradient id="SVGID_00000098923303716518812030000014173130467716319912_" cx="664.124" cy="741.3802" r="5.9055" gradientTransform="matrix(0.961 0.2764 -0.2122 0.7379 183.2062 10.7786)" gradientUnits="userSpaceOnUse">
				<stop  offset="0.6772" style="stop-color:#9B8084"/>
				<stop  offset="0.7646" style="stop-color:#8F766F"/>
				<stop  offset="0.9439" style="stop-color:#6F5D3A"/>
				<stop  offset="1" style="stop-color:#645528"/>
			</radialGradient>
			<path fill="url(#SVGID_00000098923303716518812030000014173130467716319912_)" d="M663.1,747.4c0.6-2.6,1.2-5.2,1.8-7.8
				C664.3,742.2,663.7,744.8,663.1,747.4z"/>
		</g>
	</g>
</g>
<g id="Layer_117">
	<g>
		<path fill="#FFFFFF" d="M865.9,136.1l0.1,0l0,0c-20.2,2-35.9,18.5-36.9,38.8l-1.8,38.5l-1.8-38.5c-0.9-20.3-16.7-36.8-36.9-38.8h0
			l0.1,0c20.2-2,35.9-18.4,36.9-38.7l1.7-33.8l1.7,33.8C830,117.6,845.7,134.1,865.9,136.1z"/>
		<path fill="#FFD500" d="M1039.2,61.8L1039.2,61.8L1039.2,61.8c-14.5,1.4-25.8,13.3-26.4,27.9l-1.3,27.7l-1.3-27.7
			c-0.7-14.6-12-26.5-26.5-27.9v0l0.1,0c14.5-1.4,25.8-13.2,26.5-27.8l1.2-24.3l1.2,24.3C1013.4,48.6,1024.7,60.4,1039.2,61.8z"/>
	</g>
</g>
</svg>
